# xmcd
#
# Track frame offsets:
#	150
#	17536
#	31126
#	45537
#
# Disc length: 827 seconds
#
# Revision: 0
# Processed by: cddbd v1.5PL3 Copyright (c) Steve Scherf et al.
# Submitted via: dBpowerAMP V4.0
#
DISCID=21033904
DTITLE=Michael Carey - Looking Forward Looking Back
DYEAR=2003
DGENRE=Blues
TTITLE0=Lonliness
TTITLE1=Love on Wheels
TTITLE2=High Society Woman
TTITLE3=Looking Forward Looking Back
EXTD=
EXTT0=
EXTT1=
EXTT2=
EXTT3=
PLAYORDER=
